<?xml version="1.0" encoding="UTF-8" standalone="no"?>
<svg xmlns:dc="http://purl.org/dc/elements/1.1/" xmlns:cc="http://creativecommons.org/ns#"
   xmlns:rdf="http://www.w3.org/1999/02/22-rdf-syntax-ns#" xmlns:svg="http://www.w3.org/2000/svg"
   xmlns="http://www.w3.org/2000/svg" xmlns:xlink="http://www.w3.org/1999/xlink"
   xmlns:sodipodi="http://sodipodi.sourceforge.net/DTD/sodipodi-0.dtd"
   xmlns:inkscape="http://www.inkscape.org/namespaces/inkscape" width="64" height="64" viewBox="0 0 16.933333 16.933334"
   version="1.1" id="svg8" inkscape:version="1.0.1 (3bc2e813f5, 2020-09-07)" sodipodi:docname="stock_folder_guitar.svg">
   <defs id="defs2">
      <linearGradient inkscape:collect="always" id="linearGradient835">
         <stop style="stop-color:#000000;stop-opacity:1;" offset="0" id="stop831" />
         <stop style="stop-color:#000000;stop-opacity:0;" offset="1" id="stop833" />
      </linearGradient>
      <clipPath clipPathUnits="userSpaceOnUse" id="clipPath827">
         <rect ry="0.52915645" y="285.35831" x="0.52916664" height="9.5249939" width="15.875" id="rect829"
            style="opacity:1;fill:#4d4d4d;fill-opacity:1;stroke:none;stroke-width:0.25100571;stroke-miterlimit:4;stroke-dasharray:none;stroke-opacity:0.19607843;paint-order:markers stroke fill"
            transform="rotate(45)" />
      </clipPath>
      <linearGradient inkscape:collect="always" xlink:href="#linearGradient835" id="linearGradient837" x1="-197.10156"
         y1="217.68132" x2="-196.91447" y2="219.36513" gradientUnits="userSpaceOnUse" />
   </defs>
   <sodipodi:namedview id="base" pagecolor="#ebdbb2" bordercolor="#666666" borderopacity="1.0"
      inkscape:pageopacity="0.0" inkscape:pageshadow="2" inkscape:zoom="2.405099" inkscape:cx="97.980854"
      inkscape:cy="51.865758" inkscape:document-units="mm" inkscape:current-layer="layer1" showgrid="true" units="px"
      inkscape:window-width="1920" inkscape:window-height="1010" inkscape:window-x="0" inkscape:window-y="0"
      inkscape:window-maximized="1" inkscape:document-rotation="0">
      <inkscape:grid type="xygrid" id="grid3713" />
   </sodipodi:namedview>
   <metadata id="metadata5">
      <rdf:RDF>
         <cc:Work rdf:about="">
            <dc:format>image/svg+xml</dc:format>
            <dc:type rdf:resource="http://purl.org/dc/dcmitype/StillImage" />
            <dc:title></dc:title>
         </cc:Work>
      </rdf:RDF>
   </metadata>
   <g inkscape:label="Layer 1" inkscape:groupmode="layer" id="layer1" transform="translate(0,-280.06663)">
      <path inkscape:connector-curvature="0" id="rect4538"
         d="m 3.4395833,282.44788 c -0.2931528,0 -0.3943929,0.26884 -0.5291667,0.52917 h -0.79375 c -0.2931605,0 -0.5291666,0.236 -0.5291666,0.52916 v 5.29167 c 0,0.29316 0.2360061,0.52917 0.5291666,0.52917 H 14.816666 c 0.293161,0 0.529167,-0.23601 0.529167,-0.52917 v -5.29167 c 0,-0.29316 -0.236006,-0.52916 -0.529167,-0.52916 H 7.6729166 c -0.1553681,-0.24859 -0.2360139,-0.52917 -0.5291667,-0.52917 z"
         style="opacity:1;fill:#4d4d4d;fill-opacity:1;stroke:none;stroke-width:0.26458332;stroke-miterlimit:4;stroke-dasharray:none;stroke-opacity:0.19607843;paint-order:markers stroke fill" />
      <path
         style="opacity:0.18;fill:#000000;fill-opacity:1;stroke:none;stroke-width:0.26458332;stroke-miterlimit:4;stroke-dasharray:none;stroke-opacity:0.19607843;paint-order:markers stroke fill"
         d="m 3.4395833,282.44788 c -0.2931528,0 -0.3943929,0.26884 -0.5291667,0.52917 h -0.79375 c -0.2931605,0 -0.5291666,0.236 -0.5291666,0.52916 v 5.29167 c 0,0.29316 0.2360061,0.52917 0.5291666,0.52917 H 14.816666 c 0.293161,0 0.529167,-0.23601 0.529167,-0.52917 v -5.29167 c 0,-0.29316 -0.236006,-0.52916 -0.529167,-0.52916 H 7.6729166 c -0.1553681,-0.24859 -0.2360139,-0.52917 -0.5291667,-0.52917 z"
         id="path828" inkscape:connector-curvature="0" />
      <rect
         style="opacity:1;fill:#ebdbb2;fill-opacity:1;stroke:none;stroke-width:0.26458332;stroke-miterlimit:4;stroke-dasharray:none;stroke-opacity:0.19607843;paint-order:markers stroke fill"
         id="rect827" width="12.170834" height="5.0270834" x="2.3812499" y="283.77078" ry="0.26459754" />
      <rect
         style="opacity:1;fill:#4d4d4d;fill-opacity:1;stroke:none;stroke-width:0.25100571;stroke-miterlimit:4;stroke-dasharray:none;stroke-opacity:0.19607843;paint-order:markers stroke fill"
         id="rect822" width="15.875" height="9.5249939" x="0.52916664" y="285.35831" ry="0.52915645" />
      <path
         style="opacity:1;fill:#4d4d4d;fill-opacity:1;stroke:none;stroke-width:0.13317069;stroke-miterlimit:4;stroke-dasharray:none;stroke-opacity:0.19607843;paint-order:markers stroke fill"
         d="m 8.4666727,284.29996 h 7.4083213 c 0.293161,0 0.529172,0.23601 0.529172,0.52917 v 3.96874 c 0,0.29316 -0.236011,0.52917 -0.529172,0.52917 H 6.1515685 c -0.2931617,0 -0.6768878,-0.27594 -0.5291727,-0.52917 L 7.9375,284.82913 c 0.1477151,-0.25323 0.236011,-0.52917 0.5291727,-0.52917 z"
         id="rect824" inkscape:connector-curvature="0" sodipodi:nodetypes="sssssssss" />
      <rect
         style="opacity:0.25;fill:#000000;fill-opacity:1;stroke:none;stroke-width:0.71899027;stroke-miterlimit:4;stroke-dasharray:none;stroke-opacity:0.03921569;paint-order:stroke markers fill"
         id="rect817" width="3.1749997" height="0.52915847" x="3.7041667" y="282.71246" ry="0.26457924" />
      <rect
         style="opacity:0.1;fill:url(#linearGradient837);fill-opacity:1;stroke:none;stroke-width:0.52916664;stroke-miterlimit:4;stroke-dasharray:none;stroke-opacity:0.03921569;paint-order:stroke markers fill"
         id="rect819" width="5.2916665" height="4.7624998" x="-199.58691" y="217.86841" ry="0.13229166"
         transform="rotate(-45)" clip-path="url(#clipPath827)" />
      <g id="g8" transform="matrix(0.00571213,0,0,0.00571213,5.9999481,286.82869)">
         <g transform="matrix(0.1,0,0,-0.1,0,512)" id="g6">
            <path
               d="m 8602.8999,5349.8564 c -57.5,-53.7 -69,-118.8 -34.5,-187.8 30.7,-59.4 65.2,-80.5 134.1,-80.5 23,0 67.1,-24.9 95.8,-55.6 l 51.7,-53.7 -149.5,-124.6 c -82.4,-67.1 -161,-130.3 -174.4,-138 -42.2,-24.9 -138,80.5 -138,149.5 -1.9,67.1 -28.7,109.2 -92,143.7 -90.1,47.9 -214.6,-32.6 -214.6,-136.1 0,-67.1 76.7,-149.5 138,-149.5 23,0 70.9,-26.8 105.4,-61.3 l 61.3,-59.4 -176.2,-130.1 -176.3,-128.4 -51.8,49.8 c -32.6,28.7 -53.7,69 -53.7,99.6 0,149.5 -191.6,216.5 -279.8,99.6 -67.1,-86.2 0,-233.8 105.4,-233.8 46,0 136.1,-65.1 136.1,-99.6 0,-9.6 -49.8,-44.1 -272.1,-189.7 -9.6,-5.7 -19.2,-101.6 -21.1,-210.8 -3.8,-178.2 -9.6,-210.8 -59.4,-304.7 -30.7,-57.5 -107.3,-157.1 -172.5,-220.4 -251,-247.2 -1991,-1916.3 -2004.4,-1922 -7.7,-3.8 -86.2,46 -174.4,111.1 -415.8,298.9 -833.6,417.7 -1182.3,335.4 -270.2,-63.2 -438.8,-195.5 -718.6,-559.6 -329.5,-430.99995 -498.1,-609.19995 -710.8,-743.29995 -162.9,-103.5 -275.9,-149.5 -770.3,-316.2 -243.4,-82.4 -498.2,-178.200001 -565.3,-210.800001 C 920.59993,-136.44355 562.29993,-431.54355 385.99993,-678.74355 c -103.5,-143.7 -207,-360.30005 -251,-525.00005 -49.799997,-184 -45.999997,-553.8 9.6,-760.8 164.8,-613.2 659.2,-1278.2 1393.09997,-1868.4 318.1,-252.9 682.2,-448.4 1009.9,-536.6 207,-55.6 574.9,-59.4 762.7,-9.6 287.4,76.7 548,237.6 787.6,484.8 300.8,314.3 450.3,586.4 647.7,1184.3 272.1,824 356.4,940.9 1061.6,1481.3 364.1,279.80005 496.3,448.40005 559.6,718.60005 82.4,348.8 -38.3,768.4 -335.3,1182.3 -65.1,88.2 -115,166.7 -111.1,174.4 5.7,15.3 1642.2,1722.69995 1902.9,1985.29995 72.8,74.7 182.1,161 239.5,191.6 93.9,49.8 126.5,55.6 304.7,59.4 109.2,1.9 205,11.5 210.8,21.1 147.5,224.2 182.1,272.1 193.5,272.1 19.2,0 86.2,-76.7 88.1,-101.6 0,-13.4 3.8,-38.3 3.8,-55.6 5.7,-53.7 82.4,-111.1 147.6,-111.1 80.5,0 149.5,72.8 147.6,157.1 -1.9,76.7 -76.6,149.5 -155.2,149.5 -32.6,0 -70.9,19.2 -101.5,53.7 l -51.8,51.7 130.3,176.3 128.4,178.2 61.3,-63.2 c 38.3,-38.3 61.3,-82.4 61.3,-113.1 0,-61.3 80.5,-130.3 151.4,-130.3 103.5,0 182.1,126.5 134.1,214.6 -34.5,63.2 -76.6,90.1 -143.7,92 -69,0 -174.4,95.8 -149.5,138 7.7,13.4 70.9,92 138,174.4 l 124.6,149.5 53.7,-51.7 c 30.7,-28.7 55.6,-72.8 55.6,-95.8 0,-69 21.1,-103.5 80.5,-134.1 155.2,-80.5 300.8,111.2 178.2,231.9 -26.8,28.8 -69,47.9 -101.6,47.9 -34.5,0 -72.8,19.2 -109.2,57.5 l -55.6,57.5 99.6,101.6 c 120.7,122.6 124.6,155.2 30.7,314.3 -86.2,145.6 -191.6,251 -341.1,339.2 -155.2,93.9 -189.7,90.1 -312.3,-30.7 l -101.6,-99.6 -57.5,55.6 c -38.3,36.4 -57.5,74.7 -57.5,109.2 -0.3,122.4 -157.5,193.3 -245.6,110.9 z m -4417,-5405.799951 c 452.2,-216.499999 448.4,-860.399999 -9.6,-1084.600049 -220.4,-107.3 -505.9,-57.5 -684.1,118.8 -115,116.90005 -172.5,258.70005 -172.5,431.20005 1.9,183.9 55.6,310.4 184,431.2 199.3,185.899999 435,222.199999 682.2,103.399999 z m -1257.1,-1513.800049 c 197.4,-201.2 366,-383.3 371.7,-404.3 32.6,-97.7 -69,-203.1 -168.6,-178.2 -24.9,7.6 -207,174.4 -406.3,373.7 -339.2,339.2 -362.2,367.9 -362.2,433.1 0,84.3 59.4,141.8 145.6,141.8 50,-0.1 109.4,-51.8 419.8,-366.1 z"
               id="path4" style="fill:#ebdbb2" transform="translate(3.2907458e-5,4.9247232e-5)" />
         </g>
      </g>
   </g>
</svg>
