<svg xmlns="http://www.w3.org/2000/svg" width="64" height="64" viewBox="0 0 16.933 16.933">
    <g transform="translate(1.012 -3.957) scale(1.1739)" stroke-width=".225">
        <path
            d="M12.435 10.583a6.085 6.085 0 01-6.085 6.085 6.085 6.085 0 01-6.086-6.085A6.085 6.085 0 016.35 4.498a6.085 6.085 0 016.085 6.085z"
            fill="#b16286" />
        <path d="M2.97 7.202h6.76v6.762H2.97z" fill="#303030" />
        <path
            d="M3.44 12.7h2.645v.53H3.44zm1.43-4.758c-.42 0-.793.138-1.055.4-.261.261-.4.635-.4 1.055 0 .42.139.794.4 1.055.262.262.635.4 1.055.4.385 0 .673-.12.86-.246.186-.126.287-.274.287-.274l.044-.066V9.265H4.738v.529h.794v.286c-.017.02-.022.036-.098.088a.97.97 0 01-.564.155c-.307 0-.529-.093-.68-.245-.153-.152-.246-.373-.246-.681 0-.308.093-.53.245-.681.152-.152.374-.245.681-.245.308 0 .53.093.681.245l.374-.374c-.26-.262-.635-.4-1.055-.4z"
            fill="#ebdbb2" />
        <circle cx="7.834" cy="9.407" fill="#ebdbb2" r="1.465" />
        <circle cx="7.834" cy="9.407" r=".93" fill="#303030" />
    </g>
</svg>
