<?xml version="1.0" encoding="UTF-8" standalone="no"?>
<svg
   width="64"
   height="64"
   version="1.1"
   viewBox="0 0 16.933 16.933"
   id="svg140"
   sodipodi:docname="rider.svg"
   inkscape:version="1.1.1 (3bf5ae0d25, 2021-09-20, custom)"
   xmlns:inkscape="http://www.inkscape.org/namespaces/inkscape"
   xmlns:sodipodi="http://sodipodi.sourceforge.net/DTD/sodipodi-0.dtd"
   xmlns="http://www.w3.org/2000/svg"
   xmlns:svg="http://www.w3.org/2000/svg">
  <defs
     id="defs144" />
  <sodipodi:namedview
     id="namedview142"
     pagecolor="#505050"
     bordercolor="#eeeeee"
     borderopacity="1"
     inkscape:pageshadow="0"
     inkscape:pageopacity="0"
     inkscape:pagecheckerboard="0"
     showgrid="false"
     inkscape:zoom="12.53125"
     inkscape:cx="15.600998"
     inkscape:cy="32"
     inkscape:window-width="1920"
     inkscape:window-height="1014"
     inkscape:window-x="0"
     inkscape:window-y="0"
     inkscape:window-maximized="1"
     inkscape:current-layer="svg140" />
  <g
     transform="translate(1.0583 -1.0583)"
     stroke-width=".26458"
     id="g138">
    <path
       d="m14.552 9.5248a7.1436 7.1436 0 0 1-7.1436 7.1436 7.1436 7.1436 0 0 1-7.1436-7.1436 7.1436 7.1436 0 0 1 7.1436-7.1436 7.1436 7.1436 0 0 1 7.1436 7.1436z"
       fill="#e1415c"
       id="path130" />
    <path
       d="m3.4395 5.5561h7.9373v7.9373h-7.9373z"
       fill="#303030"
       id="path132" />
    <path
       d="m3.9917 12.01h3.1059v0.62118h-3.1059z"
       fill="#ebdbb2"
       id="path134" />
    <path
       d="m4.6129 6.4189v3.4165h0.62118v-1.2424l0.49683-6.212e-4 0.74554 1.243h0.62118l-0.77648-1.2945c0.4791-0.11339 0.77648-0.42761 0.77648-1.0197v-0.015166c0-0.69164-0.33726-1.0871-1.1411-1.0871zm2.7953 0v3.4165h0.93178l0.48287-0.0054c0.60143-0.0071609 1.3807-0.61035 1.3807-1.6949v-0.01583c0-1.074-0.64815-1.7004-1.4517-1.7004zm-2.1741 0.62118h0.62118c0.37386 0 0.62118 0.12153 0.62118 0.458v0.015771c0 0.2804-0.24732 0.45837-0.62118 0.458l-0.62118-7.1e-6zm2.7953 1.46e-5h0.62118c0.37395 0 0.93178 0.31575 0.93178 1.0792v0.015772c0 0.77394-0.55792 1.0792-0.93178 1.0792h-0.62118z"
       fill="#ebdbb2"
       id="path136" />
  </g>
  <path
     style="fill:#e1415c;fill-opacity:1;stroke-width:0.0798005"
     d="M 29.925187,58.883083 C 22.580865,58.322597 15.758382,54.736874 11.06517,48.97074 7.7127987,44.851976 5.6478824,39.777897 5.1493537,34.433915 c -0.1052805,-1.128555 -0.1052805,-3.739275 0,-4.86783 C 5.9008545,21.510367 10.16453,14.270544 16.837905,9.7186462 23.402109,5.2412135 31.538554,3.9044119 39.261845,6.0344378 48.758651,8.6535856 56.164658,16.479018 58.322507,26.174564 c 0.480164,2.15745 0.563668,3.020457 0.563668,5.825436 0,2.294517 -0.02072,2.726916 -0.179712,3.750623 -0.47445,3.054843 -1.267229,5.615019 -2.525781,8.156679 -4.903301,9.902276 -15.268213,15.814283 -26.255495,14.975781 z M 47.042394,32 V 16.997506 H 32 16.957606 V 32 47.002494 H 32 47.042394 Z"
     id="path10740"
     transform="scale(0.26457812)" />
  <path
     style="fill:#fb4934;fill-opacity:1;stroke-width:0.0798005;stroke:#fb4934;stroke-opacity:1"
     d="M 29.925187,58.883083 C 22.237259,58.296374 15.1445,54.4061 10.469925,48.212157 7.7206767,44.569324 5.9884497,40.402041 5.2974609,35.768567 5.0883644,34.366457 5.0045636,31.095911 5.1406477,29.648528 5.8442695,22.164852 9.4257013,15.513882 15.242252,10.889142 23.871395,4.0281092 35.786702,3.1250765 45.406484,8.6030666 51.31021,11.964947 55.966955,17.846311 57.843659,24.310942 c 0.780625,2.688999 1.089044,4.867295 1.08867,7.689058 -4.79e-4,3.583015 -0.558557,6.568936 -1.842023,9.855415 -1.706043,4.368544 -4.61808,8.302062 -8.332558,11.255443 -5.318726,4.22892 -12.044173,6.290286 -18.832561,5.772225 z M 47.042394,32 V 16.997506 H 32 16.957606 V 32 47.002494 H 32 47.042394 Z"
     id="path10779"
     transform="scale(0.26457812)" />
</svg>
