<svg xmlns="http://www.w3.org/2000/svg" viewBox="0 0 48 48"><defs><clipPath><path d="m69.63 12.145h-.052c-22.727-.292-46.47 4.077-46.709 4.122-2.424.451-4.946 2.974-5.397 5.397-.044.237-4.414 23.983-4.122 46.71-.292 22.777 4.078 46.523 4.122 46.761.451 2.423 2.974 4.945 5.398 5.398.237.044 23.982 4.413 46.709 4.121 22.779.292 46.524-4.077 46.761-4.121 2.423-.452 4.946-2.976 5.398-5.399.044-.236 4.413-23.981 4.121-46.709.292-22.777-4.077-46.523-4.121-46.761-.453-2.423-2.976-4.946-5.398-5.397-.238-.045-23.984-4.414-46.71-4.122"/></clipPath><clipPath><path transform="matrix(15.33333 0 0 11.5 415-125.5)" d="m-24 13c0 1.105-.672 2-1.5 2-.828 0-1.5-.895-1.5-2 0-1.105.672-2 1.5-2 .828 0 1.5.895 1.5 2" fill="#83a598"/></clipPath><clipPath><path transform="matrix(15.33333 0 0 11.5 415-125.5)" d="m-24 13c0 1.105-.672 2-1.5 2-.828 0-1.5-.895-1.5-2 0-1.105.672-2 1.5-2 .828 0 1.5.895 1.5 2" fill="#83a598"/></clipPath><linearGradient id="0" x1="-30.553" y1="50.38" x2="-31.777" y2="4.454" gradientUnits="userSpaceOnUse"><stop stop-color="#458588"/><stop stop-color="#458588" offset="1"/></linearGradient></defs><g transform="translate(56.22-3.865)"><circle cx="-32.22" cy="27.865" r="24" fill="url(#0)"/><path d="m-32.22 14.717c-3.719 0-7.138.801-9.634 2.425-2.496 1.624-4.065 4.086-4.062 7.357.016 3.697 2.413 8.467 5.303 12.365 1.445 1.949 3.01 3.679 4.484 4.94 1.469 1.261 2.829 2.062 3.901 2.13h.008.001c1.072-.068 2.432-.869 3.901-2.13 1.469-1.261 3.039-2.991 4.484-4.94 2.89-3.898 5.283-8.668 5.301-12.365.0001-3.271-1.566-5.733-4.062-7.357-2.496-1.624-5.915-2.425-9.634-2.425m.658 7.494c.124 0 .257.007.395.022h.004c1.88.159 3.21.799 3.952 1.899.825 1.223.709 2.716.567 3.497-.013.07-.068.126-.139.139-.071.013-.141-.022-.177-.084-.148-.252-.399-.632-.756-1.015-.867-.928-1.945-1.418-3.118-1.418-.098 0-.198 0-.298.001v6.938c0 1.286-.965 2.341-2.295 2.509-.121.013-.244.024-.365.024-1.283 0-2.36-.869-2.505-2.02-.078-.62.117-1.237.548-1.736.431-.5 1.046-.822 1.734-.909.395-.05.795-.019 1.168.094v-7.07c0-.406.336-.88 1.284-.88" shape-rendering="auto" mix-blend-mode="normal" color-interpolation-filters="linearRGB" isolation="auto" white-space="normal" fill="#ebdbb2" solid-opacity="1" image-rendering="auto" solid-color="#000000" color="#000" fill-rule="evenodd" color-rendering="auto" color-interpolation="sRGB"/></g></svg> 
