<svg height="512" viewBox="0 0 64 64" width="512" xmlns="http://www.w3.org/2000/svg"><path d="m61 32a29 29 0 1 1 -46.18-23.36 28.673 28.673 0 0 1 8.73-4.39 29.131 29.131 0 0 1 8.45-1.25 28.626 28.626 0 0 1 12.23 2.71 29.008 29.008 0 0 1 14.59 15.26 28.7 28.7 0 0 1 2.18 11.03z" fill="#cfdfe8"/><circle cx="32" cy="32" fill="#5a6470" r="13"/><circle cx="32" cy="32" fill="#fff69a" r="8"/><circle cx="32" cy="32" fill="#394d5c" r="3"/><path d="m50 36v-21h-10l4.23-9.29a29.008 29.008 0 0 1 14.59 15.26z" fill="#e1462b"/><path d="m16 36-7.8 12.57a28.991 28.991 0 0 1 -3.14-27.3l8.94-1.27-10 16z" fill="#e1462b"/><path d="m25 10 1 6-5-3-5 3 1-5-2.18-2.36a28.673 28.673 0 0 1 8.73-4.39l.45.75 5 2z" fill="#fcf05a"/><path d="m48 47-2-4-2 4-4 1 3 3-1 4 3.979-2.083 3.813 1.975c.051-.039.1-.079.151-.119l-.943-3.773 3-3z" fill="#fcf05a"/><path d="m15 44h2v2h-2z" fill="#c18123"/><path d="m18 48h2v2h-2z" fill="#c18123"/><path d="m24 49h12v6h-12z" fill="#f4f4e6"/><path d="m36 9h2v2h-2z" fill="#c18123"/><g fill="#f4f4e6"><path d="m7.592 27.5h10.817v2h-10.817z" transform="matrix(.555 -.832 .832 .555 -17.925 23.508)"/><path d="m48.735 34.5h12.53v2h-12.53z" transform="matrix(.479 -.878 .878 .479 -2.506 66.778)"/></g></svg>